<?xml version="1.0" encoding="UTF-8" standalone="no"?>
<!-- Created with Inkscape (http://www.inkscape.org/) -->

<svg
   width="19mm"
   height="17mm"
   viewBox="0 0 19 17"
   version="1.1"
   id="svg5"
   xml:space="preserve"
   inkscape:version="1.2 (dc2aedaf03, 2022-05-15)"
   sodipodi:docname="logo.svg"
   xmlns:inkscape="http://www.inkscape.org/namespaces/inkscape"
   xmlns:sodipodi="http://sodipodi.sourceforge.net/DTD/sodipodi-0.dtd"
   xmlns:xlink="http://www.w3.org/1999/xlink"
   xmlns="http://www.w3.org/2000/svg"
   xmlns:svg="http://www.w3.org/2000/svg"
   xmlns:figma="http://www.figma.com/figma/ns"><sodipodi:namedview
     id="namedview7"
     pagecolor="#ffffff"
     bordercolor="#666666"
     borderopacity="1.0"
     inkscape:showpageshadow="2"
     inkscape:pageopacity="0.0"
     inkscape:pagecheckerboard="0"
     inkscape:deskcolor="#d1d1d1"
     inkscape:document-units="mm"
     showgrid="false"
     inkscape:zoom="8.3049731"
     inkscape:cx="2.227581"
     inkscape:cy="41.60158"
     inkscape:window-width="1920"
     inkscape:window-height="1011"
     inkscape:window-x="-9"
     inkscape:window-y="31"
     inkscape:window-maximized="1"
     inkscape:current-layer="layer1" /><defs
     id="defs2"><path
   id="path0_fill"
   d="m 1.74498,5.47533 c 0,1.55802 -0.12464,2.06549 -0.44515,2.43941 C 0.943119,8.23595 0.480024,8.41358 0,8.41331 L 0.124642,9.3036 C 0.86884,9.31366 1.59095,9.05078 2.15452,8.56466 2.45775,8.19487 2.6834,7.76781 2.818,7.30893 2.95261,6.85005 2.99341,6.36876 2.93798,5.89377 V 0 h -1.193 v 5.43972 z" /><path
   id="path1_fill"
   d="m 5.50204,4.76309 c 0,0.66772 0,1.26422 0.05341,1.78059 H 4.496 L 4.42478,5.48423 C 4.20318,5.85909 3.88627,6.16858 3.50628,6.38125 3.12628,6.59392 2.69675,6.70219 2.26135,6.69503 1.22861,6.69503 0,6.13415 0,3.84608 V 0.0445149 H 1.193 V 3.6057 c 0,1.23752 0.38283,2.06549 1.46009,2.06549 C 2.87472,5.67358 3.09459,5.63168 3.29982,5.54796 3.50505,5.46424 3.69149,5.34039 3.84822,5.18366 4.00494,5.02694 4.1288,4.84049 4.21252,4.63527 4.29623,4.43004 4.33813,4.21016 4.33575,3.98853 V 0 h 1.19299 v 4.72748 z" /><path
   id="path2_fill"
   d="m 0.0534178,2.27264 c 0,-0.82798 0,-1.504604 -0.0534178,-2.118909 H 1.06836 L 1.12177,1.2666 C 1.3598,0.864535 1.70247,0.534594 2.11325,0.311954 2.52404,0.0893145 2.98754,-0.0176786 3.45435,0.00238095 c 1.58473,0 2.77773,1.32653905 2.77773,3.30299905 0,2.33258 -1.43338,3.48997 -2.9825,3.48997 C 2.85309,6.81304 2.45874,6.7281 2.10469,6.54874 1.75064,6.36937 1.44888,6.10166 1.22861,5.77151 v 0 3.56118 H 0.0534178 V 2.29935 Z M 1.22861,4.00872 c 0.00323,0.16154 0.02111,0.32245 0.05342,0.48076 0.10101,0.39531 0.33096,0.74565 0.65345,0.99558 0.3225,0.24994 0.71913,0.3852 1.12714,0.38438 1.25532,0 1.99427,-1.02384 1.99427,-2.51064 0,-1.29983 -0.69443,-2.412704 -1.94975,-2.412704 C 2.61036,0.986777 2.14548,1.20726 1.79965,1.5662 1.45382,1.92514 1.25079,2.3979 1.22861,2.89585 Z" /><path
   id="path3_fill"
   d="M 1.31764,0.0178059 2.75102,3.85499 C 2.90237,4.28233 3.06262,4.7987 3.16946,5.18153 3.2941,4.7898 3.42764,4.29123 3.5879,3.82828 L 4.88773,0.0178059 H 6.14305 L 4.36246,4.64735 C 3.47216,6.87309 2.92908,8.02158 2.11,8.71601 1.69745,9.09283 1.19448,9.35658 0.649917,9.48166 L 0.356119,8.48453 C 0.736886,8.35942 1.09038,8.16304 1.39777,7.90584 1.8321,7.55188 2.17678,7.10044 2.4038,6.5882 2.45239,6.49949 2.48551,6.40314 2.50173,6.3033 2.49161,6.19586 2.46457,6.0907 2.42161,5.9917 L 0,0 h 1.29983 z" /><path
   id="path4_fill"
   d="M 2.19013,0 V 1.86962 H 3.8995 v 0.8903 H 2.19013 v 3.50777 c 0,0.80127 0.23148,1.26422 0.8903,1.26422 C 3.31442,7.53574 3.54789,7.5088 3.77486,7.45179 L 3.82828,8.34208 C 3.48794,8.45999 3.12881,8.51431 2.76882,8.50234 2.53042,8.51726 2.29161,8.48043 2.06878,8.39437 1.84595,8.30831 1.64438,8.17506 1.47789,8.00377 1.11525,7.51873 0.949826,6.91431 1.01494,6.31221 V 2.75102 H 0 V 1.86072 H 1.03274 V 0.275992 Z" /><path
   id="path5_fill"
   d="M 1.17716,3.57899 C 1.153,3.88093 1.19468,4.18451 1.29933,4.46876 1.40398,4.75301 1.5691,5.01114 1.78329,5.22532 1.99747,5.43951 2.2556,5.60463 2.53985,5.70928 2.8241,5.81393 3.12768,5.85561 3.42962,5.83145 4.04033,5.84511 4.64706,5.72983 5.21021,5.49313 l 0.20477,0.8903 C 4.72393,6.66809 3.98085,6.80458 3.23375,6.78406 2.79821,6.81388 2.36138,6.74914 1.95322,6.59427 1.54505,6.43941 1.17522,6.19809 0.869071,5.88688 0.562928,5.57566 0.327723,5.2019 0.179591,4.79125 0.0314584,4.38059 -0.0260962,3.94276 0.0108748,3.50777 0.0108748,1.54912 1.17716,0 3.0824,0 c 2.13671,0 2.67089,1.86962 2.67089,3.06262 0.01142,0.18382 0.01142,0.36817 0,0.55199 H 1.15046 Z M 4.66713,2.6887 C 4.70149,2.45067 4.68443,2.20805 4.61709,1.97718 4.54976,1.74631 4.43372,1.53255 4.2768,1.35031 4.11987,1.16808 3.92571,1.0216 3.70739,0.920744 3.48907,0.81989 3.25166,0.767006 3.01118,0.765656 2.52201,0.801064 2.06371,1.01788 1.72609,1.37362 1.38847,1.72935 1.19588,2.19835 1.18607,2.6887 Z" /><path
   id="path6_fill"
   d="m 0.0534178,2.19228 c 0,-0.76565 0,-1.424474 -0.0534178,-2.029876 H 1.06836 V 1.43553 H 1.12177 C 1.23391,1.04259 1.4656,0.694314 1.78468,0.439049 2.10376,0.183783 2.4944,0.034196 2.90237,0.0110538 c 0.11229,-0.01473839 0.22602,-0.01473839 0.33831,0 V 1.12393 C 3.10462,1.10817 2.9672,1.10817 2.83114,1.12393 2.427,1.13958 2.04237,1.30182 1.7491,1.58035 1.45583,1.85887 1.27398,2.23462 1.23751,2.63743 1.20422,2.8196 1.18635,3.00425 1.1841,3.18941 V 6.65267 H 0.00890297 V 2.20118 Z" /><path
   id="path7_fill"
   d="M 6.03059,2.83565 C 6.06715,3.43376 5.92485,4.02921 5.6218,4.54615 5.31875,5.0631 4.86869,5.47813 4.32893,5.73839 3.78917,5.99864 3.18416,6.09233 2.59097,6.00753 1.99778,5.92272 1.44326,5.66326 0.998048,5.26219 0.552837,4.86113 0.23709,4.33661 0.0910307,3.75546 -0.0550287,3.17431 -0.0247891,2.56283 0.177897,1.99893 0.380583,1.43503 0.746541,0.944221 1.22915,0.589037 1.71176,0.233853 2.28918,0.0303686 2.88784,0.00450543 3.28035,-0.0170932 3.67326,0.0391144 4.04396,0.169896 4.41467,0.300677 4.75587,0.503453 5.04794,0.766561 5.34,1.02967 5.57718,1.34792 5.74582,1.70301 5.91446,2.0581 6.01124,2.44303 6.03059,2.83565 Z" /><path
   id="path8_fill"
   d="M 18.6962,7.12238 C 10.6836,7.12238 3.64131,4.24672 0,0 1.41284,3.82041 3.96215,7.1163 7.30479,9.44404 10.6474,11.7718 14.623,13.0196 18.6962,13.0196 c 4.0733,0 8.0488,-1.2478 11.3915,-3.57556 C 33.4303,7.1163 35.9796,3.82041 37.3925,0 33.7601,4.24672 26.7445,7.12238 18.6962,7.12238 Z" /><path
   id="path9_fill"
   d="m 18.6962,5.89725 c 8.0127,0 15.055,2.87566 18.6963,7.12235 C 35.9796,9.19922 33.4303,5.90333 30.0877,3.57559 26.745,1.24785 22.7695,0 18.6962,0 14.623,0 10.6474,1.24785 7.30479,3.57559 3.96215,5.90333 1.41284,9.19922 0,13.0196 3.64131,8.76401 10.648,5.89725 18.6962,5.89725 Z" /><path
   id="path10_fill"
   d="M 7.59576,3.56656 C 7.64276,4.31992 7.46442,5.07022 7.08347,5.72186 6.70251,6.3735 6.13619,6.89698 5.45666,7.22561 4.77713,7.55424 4.01515,7.67314 3.26781,7.56716 2.52046,7.46117 1.82158,7.13511 1.26021,6.63051 0.698839,6.12591 0.300394,5.46561 0.115637,4.73375 -0.0691191,4.00188 -0.0318219,3.23159 0.222777,2.52099 0.477376,1.8104 0.93775,1.19169 1.54524,0.743685 2.15274,0.295678 2.87985,0.0386595 3.63394,0.00537589 4.12793,-0.0210471 4.62229,0.0501173 5.08878,0.214803 5.55526,0.37949 5.98473,0.63447 6.35264,0.965179 6.72055,1.29589 7.01971,1.69584 7.233,2.1422 7.4463,2.58855 7.56957,3.07256 7.59576,3.56656 Z" /><path
   id="path11_fill"
   d="M 2.25061,4.37943 C 1.81886,4.39135 1.39322,4.27535 1.02722,4.04602 0.661224,3.81668 0.371206,3.48424 0.193641,3.09052 0.0160762,2.69679 -0.0411078,2.25935 0.0292804,1.83321 0.0996686,1.40707 0.294486,1.01125 0.589233,0.695542 0.883981,0.37983 1.2655,0.158316 1.68581,0.0588577 2.10611,-0.0406005 2.54644,-0.0135622 2.95143,0.136572 3.35641,0.286707 3.70796,0.553234 3.96186,0.902636 4.21577,1.25204 4.3607,1.66872 4.37842,2.10027 4.39529,2.6838 4.18131,3.25044 3.78293,3.67715 3.38455,4.10387 2.83392,4.35623 2.25061,4.37943 Z" />
	
	
	
</defs><g
     inkscape:label="Livello 1"
     inkscape:groupmode="layer"
     id="layer1"><g
       id="g52"
       style="mix-blend-mode:normal;fill:#473e00;fill-opacity:1;stroke:#ffffff;stroke-width:0.188976;stroke-dasharray:none;stroke-opacity:1"
       figma:type="group"
       transform="matrix(0.26458333,0,0,0.26458333,-429.99472,-648.19563)"><g
         id="path16 fill"
         style="mix-blend-mode:normal;fill:#473e00;fill-opacity:1;stroke:#ffffff;stroke-width:0.188976;stroke-dasharray:none;stroke-opacity:1"
         figma:type="vector"><use
           xlink:href="#path7_fill"
           transform="translate(1673.48,2453.69)"
           fill="#767677"
           style="mix-blend-mode:normal;fill:#473e00;fill-opacity:1;stroke:#ffffff;stroke-width:0.188976;stroke-dasharray:none;stroke-opacity:1"
           id="use49" /></g></g><g
       id="g57"
       style="mix-blend-mode:normal;fill:#ffe534;fill-opacity:1;stroke:#ffffff;stroke-width:0.188976;stroke-dasharray:none;stroke-opacity:1"
       figma:type="group"
       transform="matrix(0.26458333,0,0,0.26458333,-430.72746,-647.74961)"><g
         id="path17 fill"
         style="mix-blend-mode:normal;fill:#ffe534;fill-opacity:1;stroke:#ffffff;stroke-width:0.188976;stroke-dasharray:none;stroke-opacity:1"
         figma:type="vector"><use
           xlink:href="#path8_fill"
           transform="translate(1643.21,2484.27)"
           fill="#f37726"
           style="mix-blend-mode:normal;fill:#ffe534;fill-opacity:1;stroke:#ffffff;stroke-width:0.188976;stroke-dasharray:none;stroke-opacity:1"
           id="use54" /></g></g><g
       id="g67"
       style="mix-blend-mode:normal;fill:#e3c600;fill-opacity:1;stroke:#ffffff;stroke-width:0.188976;stroke-dasharray:none;stroke-opacity:1"
       figma:type="group"
       transform="matrix(0.26458333,0,0,0.26458333,-429.83542,-646.82572)"><g
         id="path19 fill"
         style="mix-blend-mode:normal;fill:#e3c600;fill-opacity:1;stroke:#ffffff;stroke-width:0.188976;stroke-dasharray:none;stroke-opacity:1"
         figma:type="vector"><use
           xlink:href="#path10_fill"
           transform="translate(1643.28,2496.09)"
           fill="#9e9e9e"
           style="mix-blend-mode:normal;fill:#e3c600;fill-opacity:1;stroke:#ffffff;stroke-width:0.188976;stroke-dasharray:none;stroke-opacity:1"
           id="use64" /></g></g><g
       id="g72"
       style="mix-blend-mode:normal;fill:#aa9400;fill-opacity:1;stroke:#ffffff;stroke-width:0.188976;stroke-dasharray:none;stroke-opacity:1"
       figma:type="group"
       transform="matrix(0.26458333,0,0,0.26458333,-431.10976,-648.4505)"><g
         id="path20 fill"
         style="mix-blend-mode:normal;fill:#aa9400;fill-opacity:1;stroke:#ffffff;stroke-width:0.188976;stroke-dasharray:none;stroke-opacity:1"
         figma:type="vector"><use
           xlink:href="#path11_fill"
           transform="translate(1641.87,2458.43)"
           fill="#616262"
           style="mix-blend-mode:normal;fill:#aa9400;fill-opacity:1;stroke:#ffffff;stroke-width:0.188976;stroke-dasharray:none;stroke-opacity:1"
           id="use69" /></g></g><g
       id="layer1-9"
       transform="matrix(0.04495398,0,0,0.04495398,-26.056093,-21.738887)"
       inkscape:label="Layer 1"
       display="none">
</g><path
       id="path4870"
       inkscape:connector-curvature="0"
       display="none"
       fill="#ffffff"
       d="m 28.303563,11.043174 h -1.287931 v 0.327399 c 0,0.07184 0.02099,0.134278 0.06293,0.187369 0.04199,0.05313 0.09377,0.08276 0.155226,0.07961 h 1.061319 v 0.225399 h -1.128929 c -0.100697,0 -0.187369,-0.03907 -0.260149,-0.117105 -0.06999,-0.08123 -0.104923,-0.178018 -0.104923,-0.290447 V 10.3498 c 0,-0.112385 0.03493,-0.207642 0.104923,-0.285727 0.07278,-0.081187 0.159452,-0.1217805 0.260149,-0.1218254 h 0.772219 c 0.100697,4.49e-5 0.186065,0.040638 0.256013,0.1218254 0.07269,0.07808 0.109148,0.173342 0.109148,0.285727 v 0.693371 M 28.080636,10.83652 v -0.401888 c 0,-0.07184 -0.02099,-0.134233 -0.06293,-0.187369 -0.04199,-0.05309 -0.09508,-0.07961 -0.159452,-0.07961 h -0.624456 c -0.06154,0 -0.113284,0.02657 -0.155226,0.07961 -0.04199,0.05314 -0.07444,0.116746 -0.06293,0.187369 v 0.401888 h 1.065004 m -1.835021,-1.8686469 -0.0042,2.8950809 h -1.145607 c -0.100697,0 -0.187458,-0.03907 -0.260238,-0.117105 -0.0699,-0.08123 -0.104923,-0.178018 -0.104923,-0.290447 l 0.0042,-1.105599 c 0.0028,-0.112385 0.03916,-0.207642 0.109148,-0.285727 0.0699,-0.081187 0.155226,-0.1218254 0.255923,-0.1218254 h 0.914454 l 0.0042,-0.9743775 H 26.2456 m -0.231288,2.6884279 -0.0042,-1.507442 h -0.842617 c -0.06154,0 -0.113284,0.02967 -0.155226,0.08896 -0.04199,0.05934 -0.06294,0.124927 -0.06294,0.196764 l 0.0041,0.935941 c 0,0.07184 0.0196,0.137425 0.05884,0.196764 0.03916,0.05934 0.08946,0.08896 0.151,0.08896 h 0.851024 m -1.81713,-0.200854 c 0,0.112429 -0.03637,0.209215 -0.109058,0.290447 -0.06999,0.07804 -0.155316,0.117105 -0.256013,0.117105 h -0.856149 c -0.100697,0 -0.187458,-0.03907 -0.260148,-0.117105 -0.06999,-0.08123 -0.104923,-0.178018 -0.104923,-0.290447 v -1.105599 c 0,-0.112385 0.03493,-0.207642 0.104923,-0.285727 0.07269,-0.081187 0.159451,-0.1218254 0.260148,-0.1218254 h 0.856149 c 0.100697,0 0.186064,0.040638 0.256013,0.1218254 0.07269,0.07808 0.109058,0.173342 0.109058,0.285727 v 1.105599 m -0.222837,-0.08483 v -0.935941 c 0,-0.07184 -0.02099,-0.134233 -0.06293,-0.187369 -0.04199,-0.05309 -0.09508,-0.07961 -0.159452,-0.07961 h -0.708385 c -0.06154,0 -0.113284,0.02657 -0.155226,0.07961 -0.04199,0.05314 -0.06294,0.115532 -0.06294,0.187369 v 0.935941 c 0,0.07184 0.02099,0.134278 0.06294,0.187369 0.04199,0.05313 0.09368,0.07961 0.155226,0.07961 h 0.708385 c 0.06437,0 0.117465,-0.02652 0.159452,-0.07961 0.04194,-0.05309 0.06293,-0.115577 0.06293,-0.187369 M 22.029067,10.982755 H 21.80614 v -0.548123 c 0,-0.07184 -0.02099,-0.134233 -0.06294,-0.187369 -0.0419,-0.05309 -0.09508,-0.07961 -0.159452,-0.07961 h -0.624455 c -0.06154,0 -0.113284,0.02657 -0.155226,0.07961 -0.04199,0.05314 -0.06294,0.115532 -0.06294,0.187369 v 0.935941 c 0,0.07184 0.02099,0.134278 0.06294,0.187369 0.04199,0.05313 0.09368,0.07961 0.155226,0.07961 h 1.057138 l 0.0042,0.225399 h -1.128929 c -0.100697,0 -0.187458,-0.03907 -0.260149,-0.117105 -0.06999,-0.08123 -0.104922,-0.178018 -0.104922,-0.290447 V 10.3498 c 0,-0.112385 0.03493,-0.207642 0.104922,-0.285727 0.07269,-0.081187 0.159452,-0.1217805 0.260149,-0.1218254 h 0.772219 c 0.100697,4.49e-5 0.186065,0.040638 0.256013,0.1218254 0.07269,0.07808 0.109149,0.173342 0.109149,0.285727 v 0.632952"
       style="stroke-width:0.044954" /><path
       id="path3054"
       sodipodi:nodetypes="ccccccccccccccccc"
       inkscape:connector-curvature="0"
       fill="#f3d400"
       d="m 9.0023598,2.3548979 c 0,0 -0.409746,0.3821277 -0.8275434,0.7617033 C 7.7450033,3.1004371 6.9021994,3.214012 6.4454705,3.4099678 6.0247894,3.0954742 5.6550564,2.7482272 5.6550564,2.7482272 c 0,0 -0.3159011,0.6413225 -0.5145262,1.0176372 C 4.8458973,3.9507601 4.5500628,4.158768 4.2864316,4.4338437 3.9797825,4.290209 3.6243484,4.1149545 3.6128133,4.1091411 4.0188345,5.0755914 4.2918386,6.04346 5.034549,6.6252302 6.2168054,4.4219331 11.710651,4.6249786 12.9173,6.6127523 13.69714,6.1327885 14.000424,5.1001214 14.307073,4.1467159 14.273428,4.1597606 13.856232,4.3246644 13.585631,4.4464632 13.424136,4.2390221 13.043468,3.9199914 12.82706,3.766006 12.621826,3.3224824 12.323108,2.7232719 12.323108,2.7232719 c 0,0 -0.353872,0.3105232 -0.763859,0.6492627 C 11.00531,3.2518705 10.335177,3.105258 9.7716253,3.1415566 9.3879544,2.7693542 9.0023598,2.3548979 9.0023598,2.3548979 Z"
       style="stroke-width:0.05;stroke:#ffffff;stroke-opacity:1;stroke-dasharray:none"
       inkscape:export-filename="/home/kraptor/repos/out/nim-assets/Art/l.png"
       inkscape:export-xdpi="90"
       inkscape:export-ydpi="90" /><g
       id="g"
       style="mix-blend-mode:normal;fill:#342d00;fill-opacity:1"
       figma:type="group"
       transform="matrix(0.26458333,0,0,0.26458333,-431.25663,-647.74961)"><text
         xml:space="preserve"
         style="font-style:normal;font-weight:normal;font-size:12px;line-height:1.25;font-family:sans-serif;letter-spacing:0px;word-spacing:0px;fill:#342d00;fill-opacity:1;stroke:none;stroke-width:0.188976;stroke-dasharray:none"
         x="1633.4738"
         y="2481.1958"
         id="text498"><tspan
           sodipodi:role="line"
           id="tspan496"
           x="1633.4738"
           y="2481.1958"
           style="font-style:normal;font-variant:normal;font-weight:normal;font-stretch:normal;font-size:12px;font-family:sans-serif;-inkscape-font-specification:sans-serif;fill:#342d00;fill-opacity:1;stroke:#ffffff;stroke-width:0.188976;stroke-dasharray:none;stroke-opacity:1">jupyternim</tspan></text></g></g></svg>
